<svg width="900" height="650" viewBox="0 0 900 650" fill="none" xmlns="http://www.w3.org/2000/svg" role="img" aria-labelledby="title desc">
  <title id="title">IntelliMake About Infographic</title>
  <desc id="desc">Diagram showing IntelliMake as a research hub and factory initiative with mission and vision pillars connected to collaboration and innovation.</desc>
  <defs>
    <linearGradient id="bg" x1="0" y1="0" x2="900" y2="650" gradientUnits="userSpaceOnUse">
      <stop stop-color="#F2F6FF" />
      <stop offset="1" stop-color="#E8F5FF" />
    </linearGradient>
    <linearGradient id="pillars" x1="0" y1="0" x2="0" y2="1">
      <stop offset="0" stop-color="#0EA5E9" stop-opacity="0.15" />
      <stop offset="1" stop-color="#0EA5E9" stop-opacity="0.05" />
    </linearGradient>
    <linearGradient id="pillars2" x1="0" y1="0" x2="0" y2="1">
      <stop offset="0" stop-color="#10B981" stop-opacity="0.15" />
      <stop offset="1" stop-color="#10B981" stop-opacity="0.05" />
    </linearGradient>
    <filter id="shadow" x="-20" y="-20" width="940" height="690" filterUnits="userSpaceOnUse" color-interpolation-filters="sRGB">
      <feDropShadow dx="0" dy="18" stdDeviation="30" flood-color="#0F172A" flood-opacity="0.08" />
    </filter>
  </defs>
  <rect width="900" height="650" rx="32" fill="url(#bg)" />
  <rect x="60" y="70" width="780" height="500" rx="28" fill="white" filter="url(#shadow)" />
  <rect x="60" y="70" width="780" height="500" rx="28" fill="url(#bg)" fill-opacity="0.55" />
  <rect x="80" y="90" width="740" height="140" rx="18" fill="#0F172A" opacity="0.86" />
  <text x="110" y="150" fill="#E0F2FE" font-family="Inter, 'Segoe UI', system-ui" font-size="20" font-weight="600">Wayne State University College of Engineering</text>
  <text x="110" y="186" fill="white" font-family="Inter, 'Segoe UI', system-ui" font-size="34" font-weight="700">IntelliMake Research Hub &amp; Factory Initiative</text>
  <rect x="110" y="236" width="220" height="36" rx="12" fill="#38BDF8" fill-opacity="0.18" stroke="#38BDF8" stroke-width="1.5" />
  <text x="125" y="260" fill="#0369A1" font-family="Inter, 'Segoe UI', system-ui" font-size="16" font-weight="600">Collaboration • Prototyping • Impact</text>
  <rect x="110" y="320" width="280" height="200" rx="18" fill="url(#pillars)" stroke="#38BDF8" stroke-opacity="0.45" />
  <text x="130" y="355" fill="#0EA5E9" font-family="Inter, 'Segoe UI', system-ui" font-size="16" font-weight="700">Mission</text>
  <text x="130" y="382" fill="#0F172A" font-family="Inter, 'Segoe UI', system-ui" font-size="15" font-weight="600">Lead autonomous manufacturing research</text>
  <text x="130" y="407" fill="#1E293B" font-family="Inter, 'Segoe UI', system-ui" font-size="14">Create a living lab where AI, robotics,</text>
  <text x="130" y="429" fill="#1E293B" font-family="Inter, 'Segoe UI', system-ui" font-size="14">IoT, and digital twins drive self-directed,</text>
  <text x="130" y="451" fill="#1E293B" font-family="Inter, 'Segoe UI', system-ui" font-size="14">resilient production with industry partners.</text>
  <rect x="510" y="320" width="280" height="200" rx="18" fill="url(#pillars2)" stroke="#10B981" stroke-opacity="0.45" />
  <text x="530" y="355" fill="#10B981" font-family="Inter, 'Segoe UI', system-ui" font-size="16" font-weight="700">Vision</text>
  <text x="530" y="382" fill="#0F172A" font-family="Inter, 'Segoe UI', system-ui" font-size="15" font-weight="600">Become a global authority on autonomy</text>
  <text x="530" y="407" fill="#1E293B" font-family="Inter, 'Segoe UI', system-ui" font-size="14">Evolve factories into adaptive, self-governing</text>
  <text x="530" y="429" fill="#1E293B" font-family="Inter, 'Segoe UI', system-ui" font-size="14">systems with reconfigurable lines and always-on</text>
  <text x="530" y="451" fill="#1E293B" font-family="Inter, 'Segoe UI', system-ui" font-size="14">digital twins guided by human oversight.</text>
  <circle cx="450" cy="330" r="54" fill="#0EA5E9" opacity="0.08" />
  <circle cx="450" cy="330" r="38" fill="#0EA5E9" opacity="0.14" />
  <circle cx="450" cy="330" r="22" fill="#0EA5E9" opacity="0.23" />
  <path d="M450 276C450 271.582 453.582 268 458 268H574C578.418 268 582 271.582 582 276V296C582 300.418 578.418 304 574 304H458C453.582 304 450 300.418 450 296V276Z" fill="#F8FAFC" stroke="#CBD5E1" />
  <path d="M318 276C318 271.582 321.582 268 326 268H442C446.418 268 450 271.582 450 276V296C450 300.418 446.418 304 442 304H326C321.582 304 318 300.418 318 296V276Z" fill="#F8FAFC" stroke="#CBD5E1" />
  <text x="335" y="291" fill="#0F172A" font-family="Inter, 'Segoe UI', system-ui" font-size="13" font-weight="600">Applied research</text>
  <text x="470" y="291" fill="#0F172A" font-family="Inter, 'Segoe UI', system-ui" font-size="13" font-weight="600">Factory validation</text>
  <path d="M390 520H510" stroke="#0EA5E9" stroke-width="3" stroke-linecap="round" stroke-dasharray="8 10" />
  <text x="360" y="548" fill="#0EA5E9" font-family="Inter, 'Segoe UI', system-ui" font-size="14" font-weight="600">Collaboration</text>
  <text x="520" y="548" fill="#0EA5E9" font-family="Inter, 'Segoe UI', system-ui" font-size="14" font-weight="600">Prototyping</text>
  <rect x="392" y="492" width="12" height="12" rx="3" fill="#0EA5E9" />
  <rect x="496" y="492" width="12" height="12" rx="3" fill="#0EA5E9" />
  <rect x="420" y="210" width="60" height="60" rx="14" fill="#38BDF8" opacity="0.9" />
  <path d="M445 230L458 243L445 256" stroke="white" stroke-width="5" stroke-linecap="round" stroke-linejoin="round" />
  <path d="M472 230L485 243L472 256" stroke="white" stroke-width="5" stroke-linecap="round" stroke-linejoin="round" opacity="0.8" />
</svg>
