<?xml version="1.0" encoding="UTF-8"?>
<svg version="1.1" xmlns="http://www.w3.org/2000/svg" width="1007" height="185">
<path d="M0 0 C332.31 0 664.62 0 1007 0 C1007 61.05 1007 122.1 1007 185 C674.69 185 342.38 185 0 185 C0 123.95 0 62.9 0 0 Z " fill="#FDFDFD" transform="translate(0,0)"/>
<path d="M0 0 C12.54 0 25.08 0 38 0 C43.14556377 18.52402957 43.14556377 18.52402957 45.01416016 25.42333984 C46.77118933 31.87725376 48.71012342 38.14800803 51.0859375 44.40625 C53.32356789 50.75576528 55.24619821 57.2295493 55 64 C55.66 64 56.32 64 57 64 C57.79370097 67.14532356 58.58457728 70.29135115 59.375 73.4375 C59.59671875 74.31599609 59.8184375 75.19449219 60.046875 76.09960938 C61.45599994 81.7153867 62.76837645 87.34258903 64 93 C64.66 93 65.32 93 66 93 C66.103125 92.195625 66.20625 91.39125 66.3125 90.5625 C67.00537999 86.97212187 68.05913365 83.72007952 69.25 80.2734375 C70.1200026 77.63624211 70.76817545 74.96228263 71.41015625 72.26171875 C72.1320337 69.4937251 73.00501008 66.7875657 73.875 64.0625 C75.73879924 58.11081396 77.1826011 52.12224157 78.56323242 46.04638672 C79.74671314 40.90209647 81.22850552 35.97705593 83 31 C83.34701552 29.670162 83.68406363 28.33756237 84 27 C84.66 27 85.32 27 86 27 C86.185625 25.52080078 86.185625 25.52080078 86.375 24.01171875 C86.96762466 19.8664762 87.95044246 15.8624231 89 11.8125 C89.26683594 10.76545898 89.26683594 10.76545898 89.5390625 9.69726562 C90.02348758 7.79752397 90.51158344 5.89871937 91 4 C91.33 2.68 91.66 1.36 92 0 C104.54 0 117.08 0 130 0 C130.433125 6.8990625 130.433125 6.8990625 130.875 13.9375 C131.02171143 16.26687622 131.02171143 16.26687622 131.17138672 18.64331055 C131.63458899 26.01775453 132.08486162 33.39266296 132.5078125 40.76953125 C133.44413399 57.75293174 133.44413399 57.75293174 135 74.6875 C136.29602936 86.17683215 136.73942205 97.73272118 137.30273438 109.27612305 C137.38010584 110.85856621 137.45757806 112.44100446 137.53515625 114.0234375 C137.57250885 114.78656754 137.60986145 115.54969757 137.64834595 116.33595276 C137.99447731 123.23218637 138.46875198 130.11541653 139 137 C135.03069011 137.02465881 131.06140966 137.04284023 127.09204102 137.05493164 C125.74079614 137.05997057 124.38955674 137.06680177 123.03833008 137.07543945 C121.09979566 137.08752419 119.161222 137.09269828 117.22265625 137.09765625 C116.05484619 137.10289307 114.88703613 137.10812988 113.68383789 137.11352539 C111 137 111 137 110 136 C109.80260738 133.45012004 109.66742176 130.92157663 109.5703125 128.3671875 C109.49802814 126.69823947 109.42567786 125.0292943 109.35327148 123.36035156 C109.31628143 122.46771606 109.27929138 121.57508057 109.24118042 120.65539551 C108.51070967 103.17398527 107.54978195 85.71101768 106.4375 68.25 C106.37346985 67.2258197 106.3094397 66.2016394 106.24346924 65.14642334 C106.06042135 62.22758171 105.87287226 59.30906851 105.68359375 56.390625 C105.60242058 55.09479996 105.60242058 55.09479996 105.51960754 53.77279663 C105.23275407 49.45719458 104.80679811 45.25755071 104 41 C103.75092896 41.92111572 103.75092896 41.92111572 103.49682617 42.86083984 C102.72845003 45.69927409 101.95798512 48.53713753 101.1875 51.375 C100.79594727 52.82326172 100.79594727 52.82326172 100.39648438 54.30078125 C98.26993564 62.12438032 95.96968689 69.88371564 93.5625 77.625 C92.02784047 82.7110706 90.76016792 87.86032746 89.53344727 93.02783203 C88.49652486 97.30990765 87.20739735 101.4456024 85.78515625 105.61450195 C84.08623563 110.7762412 82.69963303 116.03544008 81.25 121.27148438 C80.87875 122.5930957 80.87875 122.5930957 80.5 123.94140625 C80.2834375 124.72201416 80.066875 125.50262207 79.84375 126.30688477 C78.71135625 129.92130476 77.32993525 133.453506 76 137 C68.74 137 61.48 137 54 137 C52.64237766 133.60594416 51.72440424 131.1357059 51.0625 127.6875 C50.27326547 123.93397514 49.12594829 120.52114917 47.71875 116.9609375 C46.76581921 114.36109373 46.15517087 111.72388405 45.5234375 109.03125 C44.9970958 106.98872996 44.33519634 105.04799514 43.625 103.0625 C41.84126323 97.88245636 40.70048842 92.57510429 39.48535156 87.24072266 C38.43848679 82.70263418 37.2180842 78.31472103 35.66015625 73.921875 C34.07219476 69.29893386 33 64.91782471 33 60 C32.34 60 31.68 60 31 60 C30.72285156 58.79601562 30.44570313 57.59203125 30.16015625 56.3515625 C29.79440321 54.77601093 29.42851055 53.20049177 29.0625 51.625 C28.88009766 50.8309375 28.69769531 50.036875 28.50976562 49.21875 C28.33251953 48.45820312 28.15527344 47.69765625 27.97265625 46.9140625 C27.81031494 46.2123291 27.64797363 45.5105957 27.48071289 44.78759766 C27.0411926 42.91605426 27.0411926 42.91605426 26 41 C25.68716152 43.95829788 25.37472243 46.91663709 25.0625 49.875 C24.97548828 50.69742188 24.88847656 51.51984375 24.79882812 52.3671875 C24.61992826 54.06342325 24.44315944 55.75988486 24.26831055 57.45654297 C24.09797004 59.0712904 23.91823979 60.68509666 23.72583008 62.29736328 C22.90837535 69.48041706 22.7654677 76.66810432 22.61129761 83.88949585 C22.22385489 101.63892761 21.20235759 119.28526479 20 137 C10.76 137 1.52 137 -8 137 C-8 130.58726067 -7.9901416 124.52047318 -7.51953125 118.18359375 C-7.40852864 116.63770115 -7.29761284 115.09180232 -7.18676758 113.54589844 C-7.12615143 112.72021362 -7.06553528 111.89452881 -7.00308228 111.04382324 C-5.22977217 86.79277825 -3.78284699 62.52080774 -2.3125 38.25 C-2.19708097 36.34666899 -2.08165335 34.44333851 -1.96621704 32.54000854 C-1.30861882 21.69347029 -0.6540108 10.84675618 0 0 Z " fill="#657474" transform="translate(570,19)"/>
<path d="M0 0 C23 0 23 0 28.10546875 4.58203125 C29.74438477 7.56665039 29.74438477 7.56665039 31.1875 10.8125 C32.36587442 13.03715436 33.54557709 15.26110562 34.7265625 17.484375 C35.27602539 18.59361328 35.82548828 19.70285156 36.39160156 20.84570312 C38.65632748 25.28715103 41.32741599 29.40100629 44.0625 33.5625 C45.02207901 35.07308214 45.97775247 36.58615167 46.9296875 38.1015625 C47.41663086 38.87661133 47.90357422 39.65166016 48.40527344 40.45019531 C51.52136606 45.43250875 54.61207119 50.42999577 57.6875 55.4375 C58.30052979 56.42758057 58.91355957 57.41766113 59.54516602 58.43774414 C60.11162842 59.36449951 60.67809082 60.29125488 61.26171875 61.24609375 C61.76662842 62.06779053 62.27153809 62.8894873 62.79174805 63.73608398 C64 66 64 66 65 70 C65.33 47.23 65.66 24.46 66 1 C73.26 1 80.52 1 88 1 C88 37.3 88 73.6 88 111 C80.74 111 73.48 111 66 111 C58.76092759 101.39430777 58.76092759 101.39430777 56.7890625 96.8515625 C53.98980706 90.78820064 50.53457268 85.32465292 46.875 79.75 C45.69438087 77.90898262 44.5159531 76.0665579 43.33984375 74.22265625 C42.7763623 73.3423877 42.21288086 72.46211914 41.63232422 71.55517578 C25.6241553 46.49662121 25.6241553 46.49662121 24 40 C23.67 63.43 23.34 86.86 23 111 C15.41 111 7.82 111 0 111 C0 74.37 0 37.74 0 0 Z " fill="#647373" transform="translate(69,45)"/>
<path d="M0 0 C8.25 0 16.5 0 25 0 C24.09922981 3.60308074 23.0009535 6.22902223 21.33984375 9.515625 C20.7969873 10.59489258 20.25413086 11.67416016 19.69482422 12.78613281 C19.11490723 13.92920898 18.53499023 15.07228516 17.9375 16.25 C17.34984863 17.4162793 16.76219727 18.58255859 16.15673828 19.78417969 C14.98114392 22.11728731 13.80408468 24.44965745 12.62548828 26.78125 C10.52965182 30.93137133 8.45057215 35.08971893 6.375 39.25 C5.77877159 40.4427712 5.18242665 41.63548417 4.5859375 42.828125 C3.80089844 44.39820312 3.80089844 44.39820312 3 46 C2.41476562 47.02609375 1.82953125 48.0521875 1.2265625 49.109375 C-0.20290096 52.47817424 -0.18138045 53.58712313 1 57 C2.48370843 60.39485642 4.10258679 63.70743731 5.72265625 67.0390625 C7 70 7 70 7 73 C7.66 73 8.32 73 9 73 C9.3403125 73.83660156 9.680625 74.67320313 10.03125 75.53515625 C13.34047105 83.48256745 17.03529697 91.07436801 21.16796875 98.625 C26 107.52665245 26 107.52665245 26 111 C17.75 111 9.5 111 1 111 C-3.42677248 101.58133515 -7.76595018 92.13296951 -11.97827148 82.61621094 C-12.52463257 81.3907959 -12.52463257 81.3907959 -13.08203125 80.140625 C-13.40405518 79.41391602 -13.7260791 78.68720703 -14.05786133 77.93847656 C-15.06342283 75.75841414 -15.06342283 75.75841414 -17 73 C-17.55520331 69.67401793 -17.73764183 66.36692991 -18 63 C-24.27 63 -30.54 63 -37 63 C-37 78.51 -37 94.02 -37 110 C-44.26 110 -51.52 110 -59 110 C-59 74.03 -59 38.06 -59 1 C-51.74 1 -44.48 1 -37 1 C-37 15.52 -37 30.04 -37 45 C-30.73 45 -24.46 45 -18 45 C-18 42.69 -18 40.38 -18 38 C-17.046875 35.48046875 -17.046875 35.48046875 -15.75 33.1875 C-14.03303464 29.99680604 -12.51244646 26.89574719 -11.25 23.5 C-8.12404413 15.39856438 -3.92318913 7.73099034 0 0 Z " fill="#657575" transform="translate(892,45)"/>
<path d="M0 0 C23.1 0 46.2 0 70 0 C68 16 68 16 67 19 C52.48 19 37.96 19 23 19 C23 28.24 23 37.48 23 47 C36.2 47 49.4 47 63 47 C63 52.61 63 58.22 63 64 C49.8 64 36.6 64 23 64 C23 73.24 23 82.48 23 92 C38.51 92 54.02 92 70 92 C70 98.27 70 104.54 70 111 C46.9 111 23.8 111 0 111 C0 74.37 0 37.74 0 0 Z " fill="#687777" transform="translate(932,45)"/>
<path d="M0 0 C22.77 0 45.54 0 69 0 C68 17 68 17 67 19 C52.48 19 37.96 19 23 19 C23 28.24 23 37.48 23 47 C36.2 47 49.4 47 63 47 C63 52.61 63 58.22 63 64 C49.47 64 35.94 64 22 64 C22 73.24 22 82.48 22 92 C37.84 92 53.68 92 70 92 C70 98.27 70 104.54 70 111 C46.9 111 23.8 111 0 111 C0 74.37 0 37.74 0 0 Z " fill="#677777" transform="translate(268,45)"/>
<path d="M0 0 C8.91 0 17.82 0 27 0 C27 44.88 27 89.76 27 136 C18.09 136 9.18 136 0 136 C0 91.12 0 46.24 0 0 Z " fill="#637373" transform="translate(9,19)"/>
<path d="M0 0 C1.08864349 0.00539291 1.08864349 0.00539291 2.19927979 0.01089478 C2.96020432 0.01074875 3.72112885 0.01060272 4.50511169 0.01045227 C7.03202113 0.01115155 9.55885776 0.01894462 12.08575439 0.02676392 C13.83310404 0.02862804 15.58045421 0.03005197 17.32780457 0.03105164 C21.93591749 0.03487724 26.54399909 0.04470788 31.15209961 0.05575562 C35.85068335 0.06596883 40.54927214 0.07054906 45.24786377 0.07559204 C54.47379123 0.08633011 63.69968719 0.10392725 72.92559814 0.12442017 C72.92559814 6.39442017 72.92559814 12.66442017 72.92559814 19.12442017 C63.68559814 19.12442017 54.44559814 19.12442017 44.92559814 19.12442017 C44.92559814 49.48442017 44.92559814 79.84442017 44.92559814 111.12442017 C37.33559814 111.12442017 29.74559814 111.12442017 21.92559814 111.12442017 C21.92559814 80.76442017 21.92559814 50.40442017 21.92559814 19.12442017 C12.68559814 19.12442017 3.44559814 19.12442017 -6.07440186 19.12442017 C-6.09502686 16.17504517 -6.11565186 13.22567017 -6.13690186 10.18692017 C-6.14600586 9.25629761 -6.15510986 8.32567505 -6.16448975 7.36685181 C-6.1669873 6.63845093 -6.16948486 5.91005005 -6.17205811 5.15957642 C-6.17729492 4.41071167 -6.18253174 3.66184692 -6.18792725 2.89028931 C-5.94186124 -0.93722776 -3.18483614 0.00665687 0 0 Z " fill="#687777" transform="translate(179.07440185546875,44.875579833984375)"/>
<path d="M0 0 C7.59 0 15.18 0 23 0 C23 30.36 23 60.72 23 92 C35.87 92 48.74 92 62 92 C62 98.27 62 104.54 62 111 C41.54 111 21.08 111 0 111 C0 74.37 0 37.74 0 0 Z " fill="#687878" transform="translate(435,45)"/>
<path d="M0 0 C7.26 0 14.52 0 22 0 C23.844719 1.844719 23.1200219 4.44516412 23.12442017 6.8993988 C23.12082489 7.74672073 23.11722961 8.59404266 23.11352539 9.46704102 C23.11367142 10.35476196 23.11381744 11.24248291 23.1139679 12.15710449 C23.11326843 15.10606284 23.10547448 18.05495887 23.09765625 21.00390625 C23.09579219 23.04271917 23.09436823 25.08153254 23.09336853 27.12034607 C23.08954241 32.49784574 23.07971132 37.87531858 23.06866455 43.25280762 C23.05845245 48.73559201 23.05387134 54.21838072 23.04882812 59.70117188 C23.03808914 70.46746162 23.02049158 81.23372439 23 92 C35.87 92 48.74 92 62 92 C62 98.27 62 104.54 62 111 C41.54 111 21.08 111 0 111 C0 74.37 0 37.74 0 0 Z " fill="#687878" transform="translate(358,45)"/>
<path d="M0 0 C7.26 0 14.52 0 22 0 C22 36.3 22 72.6 22 110 C14.74 110 7.48 110 0 110 C0 73.7 0 37.4 0 0 Z " fill="#627272" transform="translate(511,46)"/>
<path d="M0 0 C2.81080777 1.30324289 3.45242681 2.91813602 4.80078125 5.671875 C5.24035156 6.53296875 5.67992187 7.3940625 6.1328125 8.28125 C7.43136231 12.28955901 6.50604151 14.83457845 4.73828125 18.546875 C2.98828125 20.921875 2.98828125 20.921875 0.671875 22.27734375 C-2.27223201 24.08151995 -4.32751534 26.10881843 -6.69921875 28.609375 C-8.09859582 30.08401269 -9.52834661 31.53176005 -11.01171875 32.921875 C-11.67171875 32.921875 -12.33171875 32.921875 -13.01171875 32.921875 C-13.34171875 33.911875 -13.67171875 34.901875 -14.01171875 35.921875 C-22.58152407 35.30148148 -30.98234559 34.0501414 -39.44921875 32.609375 C-40.09981262 32.49993561 -40.75040649 32.39049622 -41.42071533 32.27774048 C-52.66503132 30.38600103 -63.8543183 28.27149227 -75.01171875 25.921875 C-74.46490851 20.91586578 -72.77031542 16.95006433 -70.44921875 12.546875 C-70.11986328 11.90621094 -69.79050781 11.26554688 -69.45117188 10.60546875 C-68.64532393 9.04048868 -67.82953382 7.48063479 -67.01171875 5.921875 C-65.24071524 6.17066662 -63.46993924 6.42107698 -61.69921875 6.671875 C-59.81396484 6.93871094 -59.81396484 6.93871094 -57.890625 7.2109375 C-54.04039172 7.76465276 -50.19594181 8.3523741 -46.3515625 8.9453125 C-45.16667236 9.12610352 -43.98178223 9.30689453 -42.76098633 9.49316406 C-40.3759766 9.85754278 -37.99166997 10.22655885 -35.6081543 10.60058594 C-24.65805587 12.88415625 -24.65805587 12.88415625 -14.4921875 9.8046875 C-13.37854285 8.90485213 -12.28079279 7.98501449 -11.19921875 7.046875 C-10.08884229 6.13244733 -8.97817529 5.21837233 -7.8671875 4.3046875 C-6.92488281 3.51835938 -5.98257813 2.73203125 -5.01171875 1.921875 C-2.01171875 -0.078125 -2.01171875 -0.078125 0 0 Z " fill="#F8F8F8" transform="translate(808.01171875,117.078125)"/>
<path d="M0 0 C1.20250158 2.24307028 2.3869162 4.4928791 3.5625 6.75 C4.07586914 7.70132813 4.07586914 7.70132813 4.59960938 8.671875 C6.99759758 13.3225188 6.99759758 13.3225188 7.0078125 16.203125 C4.60524887 20.48676559 -0.14293559 23.1086829 -4 26 C-4.94875 26.825 -5.8975 27.65 -6.875 28.5 C-16.2882084 33.01834003 -30.48973482 29.57513347 -40.1875 26.9375 C-45.0978402 25.73003929 -49.96568469 25.35166173 -55 25 C-56.07980476 21.78249481 -55.97733906 20.17877268 -54.56640625 17.109375 C-54.24736328 16.40039062 -53.92832031 15.69140625 -53.59960938 14.9609375 C-53.25736328 14.23132813 -52.91511719 13.50171875 -52.5625 12.75 C-52.05493164 11.63238281 -52.05493164 11.63238281 -51.53710938 10.4921875 C-50.70173696 8.65672135 -49.85222033 6.82770445 -49 5 C-40.82820254 5.41214283 -33.00294674 6.38856934 -25.00219727 8.0715332 C-19.09510406 9.23472224 -14.34897162 9.54960052 -9.19921875 6.15234375 C-8.37035156 5.42144531 -7.54148437 4.69054687 -6.6875 3.9375 C-2.16871705 0 -2.16871705 0 0 0 Z " fill="#494949" transform="translate(799,95)"/>
<path d="M0 0 C0.99 0 1.98 0 3 0 C4.20474943 2.38846832 5.38864958 4.78390152 6.5625 7.1875 C7.07586914 8.19780273 7.07586914 8.19780273 7.59960938 9.22851562 C9.06017946 12.25292843 10.01192609 14.35415615 9.94921875 17.75 C8.00999404 22.34668079 4.36307803 24.8061359 0 27 C-4.42216734 27.78881904 -8.54769142 27.4518199 -13 27 C-13.72477539 26.93039063 -14.44955078 26.86078125 -15.19628906 26.7890625 C-28.56328546 25.47890485 -28.56328546 25.47890485 -33 24 C-31.62820313 16.51747162 -29.07836721 9.94395046 -26 3 C-25.39003174 3.05124023 -24.78006348 3.10248047 -24.15161133 3.15527344 C-21.37316589 3.37596516 -18.59342525 3.56326243 -15.8125 3.75 C-14.85279297 3.83121094 -13.89308594 3.91242188 -12.90429688 3.99609375 C-7.12669313 4.43558219 -7.12669313 4.43558219 -2.01171875 2.015625 C-1.34785156 1.35046875 -0.68398438 0.6853125 0 0 Z " fill="#4D4D4D" transform="translate(786,74)"/>
<path d="M0 0 C2.81080777 1.30324289 3.45242681 2.91813602 4.80078125 5.671875 C5.24035156 6.53296875 5.67992187 7.3940625 6.1328125 8.28125 C7.43136231 12.28955901 6.50604151 14.83457845 4.73828125 18.546875 C2.98828125 20.921875 2.98828125 20.921875 0.671875 22.27734375 C-2.27223201 24.08151995 -4.32751534 26.10881843 -6.69921875 28.609375 C-8.09859582 30.08401269 -9.52834661 31.53176005 -11.01171875 32.921875 C-11.67171875 32.921875 -12.33171875 32.921875 -13.01171875 32.921875 C-13.34171875 33.911875 -13.67171875 34.901875 -14.01171875 35.921875 C-22.58152407 35.30148148 -30.98234559 34.0501414 -39.44921875 32.609375 C-40.09981262 32.49993561 -40.75040649 32.39049622 -41.42071533 32.27774048 C-52.66503132 30.38600103 -63.8543183 28.27149227 -75.01171875 25.921875 C-74.46490851 20.91586578 -72.77031542 16.95006433 -70.44921875 12.546875 C-70.11986328 11.90621094 -69.79050781 11.26554688 -69.45117188 10.60546875 C-68.64532393 9.04048868 -67.82953382 7.48063479 -67.01171875 5.921875 C-65.24071524 6.17066662 -63.46993924 6.42107698 -61.69921875 6.671875 C-59.81396484 6.93871094 -59.81396484 6.93871094 -57.890625 7.2109375 C-54.04039172 7.76465276 -50.19594181 8.3523741 -46.3515625 8.9453125 C-45.16667236 9.12610352 -43.98178223 9.30689453 -42.76098633 9.49316406 C-40.3759766 9.85754278 -37.99166997 10.22655885 -35.6081543 10.60058594 C-24.65805587 12.88415625 -24.65805587 12.88415625 -14.4921875 9.8046875 C-13.37854285 8.90485213 -12.28079279 7.98501449 -11.19921875 7.046875 C-10.08884229 6.13244733 -8.97817529 5.21837233 -7.8671875 4.3046875 C-6.92488281 3.51835938 -5.98257813 2.73203125 -5.01171875 1.921875 C-2.01171875 -0.078125 -2.01171875 -0.078125 0 0 Z M-67.01171875 8.921875 C-67.85157959 10.85655442 -68.68339902 12.79472629 -69.51171875 14.734375 C-69.97578125 15.81332031 -70.43984375 16.89226562 -70.91796875 18.00390625 C-72.18721178 20.87069524 -72.18721178 20.87069524 -72.01171875 23.921875 C-61.94993019 26.85916731 -51.76512538 28.18140872 -41.40380859 29.58544922 C-38.3662847 30.01264946 -35.34576891 30.51917866 -32.32421875 31.046875 C-27.23862327 31.92496343 -22.15316245 32.48962973 -17.01171875 32.921875 C-17.12857315 31.42121846 -17.25573923 29.9213647 -17.38671875 28.421875 C-17.49113281 27.16890625 -17.49113281 27.16890625 -17.59765625 25.890625 C-18.12111796 22.13750328 -19.04850029 18.58680378 -20.01171875 14.921875 C-20.76678711 14.81117676 -21.52185547 14.70047852 -22.29980469 14.58642578 C-25.78728616 14.07443835 -29.27450247 13.56066549 -32.76171875 13.046875 C-33.94894531 12.87285156 -35.13617187 12.69882813 -36.359375 12.51953125 C-43.06432079 11.53027695 -49.75028969 10.48081529 -56.42382812 9.296875 C-60.00074163 8.77855999 -63.40448087 8.78313508 -67.01171875 8.921875 Z " fill="#565656" transform="translate(808.01171875,117.078125)"/>
<path d="M0 0 C10.70377267 1.46273421 21.35061228 3.18887964 32 5 C32.66 10.28 33.32 15.56 34 21 C1.9454115 18.03843476 1.9454115 18.03843476 -5 14 C-4.46515599 8.65155992 -2.53309233 4.64203897 0 0 Z " fill="#F9F9F9" transform="translate(752,102)"/>
<path d="M0 0 C5.34117614 2.14271827 6.79703922 6.48161442 9.3125 11.375 C9.77978516 12.23867188 10.24707031 13.10234375 10.72851562 13.9921875 C11.16486328 14.8275 11.60121094 15.6628125 12.05078125 16.5234375 C12.44950439 17.28575684 12.84822754 18.04807617 13.2590332 18.83349609 C14.13352754 21.39041957 13.99738896 22.5148419 13 25 C10.88333167 27.38125187 9.22547496 28.80179695 6.01953125 29.3203125 C0.20430922 29.4644065 -5.3603941 28.31865524 -11 27 C-10.56260445 22.62604448 -9.29960622 19.30608114 -7.25390625 15.43359375 C-4.65033749 10.38056155 -2.36365889 5.16853412 0 0 Z " fill="#F0F0F0" transform="translate(773,47)"/>
<path d="M0 0 C1.70824133 -0.02735618 3.41661405 -0.04655506 5.125 -0.0625 C6.07632813 -0.07410156 7.02765625 -0.08570312 8.0078125 -0.09765625 C11.08560857 0.00279401 13.97688357 0.43036233 17 1 C17.50690584 3.06081361 18.00524619 5.12373526 18.5 7.1875 C18.7784375 8.33605469 19.056875 9.48460938 19.34375 10.66796875 C19.91495385 13.56818829 20.13283779 16.06096385 20 19 C16.81224942 18.6900234 13.6248509 18.37655764 10.4375 18.0625 C9.54224609 17.97548828 8.64699219 17.88847656 7.72460938 17.79882812 C2.79447591 17.31123251 -2.10211759 16.7457681 -7 16 C-6.28028381 12.24654344 -4.66887798 9.13908031 -2.9375 5.75 C-2.11572266 4.13351563 -2.11572266 4.13351563 -1.27734375 2.484375 C-0.64505859 1.25460938 -0.64505859 1.25460938 0 0 Z " fill="#F7F7F7" transform="translate(762,80)"/>
<path d="M0 0 C0.33 0 0.66 0 1 0 C1 35.64 1 71.28 1 108 C7.27 108 13.54 108 20 108 C20 72.36 20 36.72 20 0 C20.66 0 21.32 0 22 0 C22 36.3 22 72.6 22 110 C14.74 110 7.48 110 0 110 C0 73.7 0 37.4 0 0 Z " fill="#738282" transform="translate(511,46)"/>
<path d="M0 0 C2.98770538 2.56089033 4.54473565 5.36183914 6 9 C5.81543749 12.36555157 5.26622447 13.71133515 2.9609375 16.2109375 C2.10757813 16.92507812 1.25421875 17.63921875 0.375 18.375 C-3.49946553 21.6888337 -7.12776855 25.07775464 -10.625 28.78515625 C-12 30 -12 30 -14 30 C-14.50744423 28.10614563 -15.00564574 26.20981334 -15.5 24.3125 C-15.7784375 23.25675781 -16.056875 22.20101562 -16.34375 21.11328125 C-17.47539216 15.74471698 -17.47539216 15.74471698 -17 13 C-14.8046875 10.68359375 -14.8046875 10.68359375 -11.875 8.4375 C-10.87597656 7.6640625 -9.87695312 6.890625 -8.84765625 6.09375 C-5.9467422 3.960842 -3.05730259 1.90048539 0 0 Z " fill="#F6F6F6" transform="translate(807,119)"/>
<path d="M0 0 C7.59 0 15.18 0 23 0 C23 0.33 23 0.66 23 1 C16.4 1.33 9.8 1.66 3 2 C2.67 37.31 2.34 72.62 2 109 C8.6 109 15.2 109 22 109 C22 86.23 22 63.46 22 40 C22.33 40 22.66 40 23 40 C23 63.43 23 86.86 23 111 C15.41 111 7.82 111 0 111 C0 74.37 0 37.74 0 0 Z " fill="#8B9797" transform="translate(69,45)"/>
<path d="M0 0 C1.00484204 1.95585325 2.00373805 3.91476237 3 5.875 C3.556875 6.96554688 4.11375 8.05609375 4.6875 9.1796875 C6 12 6 12 6 14 C4.1015625 15.5078125 4.1015625 15.5078125 1.625 17.125 C0.81289063 17.66382812 0.00078125 18.20265625 -0.8359375 18.7578125 C-3 20 -3 20 -5 20 C-5.33 20.99 -5.66 21.98 -6 23 C-8.0625 23.6875 -8.0625 23.6875 -10 24 C-10.33895656 22.27192682 -10.67091525 20.54248026 -11 18.8125 C-11.185625 17.84957031 -11.37125 16.88664062 -11.5625 15.89453125 C-12.37967197 10.48806312 -12.37967197 10.48806312 -12 8 C-9.8828125 5.76171875 -9.8828125 5.76171875 -7.125 3.6875 C-6.22007812 2.99011719 -5.31515625 2.29273437 -4.3828125 1.57421875 C-2 0 -2 0 0 0 Z " fill="#F5F5F5" transform="translate(798,98)"/>
<path d="M0 0 C2.64 0.33 5.28 0.66 8 1 C4.91190305 2.76462683 3.76687864 3 0 3 C-0.12246094 3.71542969 -0.24492188 4.43085937 -0.37109375 5.16796875 C-1.01135375 8.05112713 -1.93551556 10.58592473 -3.0625 13.3125 C-3.42472656 14.19550781 -3.78695312 15.07851562 -4.16015625 15.98828125 C-4.57587891 16.98408203 -4.57587891 16.98408203 -5 18 C-3.99066406 18.13664062 -2.98132813 18.27328125 -1.94140625 18.4140625 C1.7565713 18.96381139 5.3963034 19.64568175 9.0625 20.375 C16.70602548 21.85833257 24.38683197 22.92923735 32.10961914 23.90966797 C38.13468085 24.68827094 44.05847526 25.73252803 50 27 C49.77183594 26.10796875 49.54367187 25.2159375 49.30859375 24.296875 C48.87740234 22.54117188 48.87740234 22.54117188 48.4375 20.75 C48.14746094 19.58984375 47.85742188 18.4296875 47.55859375 17.234375 C47.04820036 14.27909017 46.97003835 12.75565899 48 10 C52.40774487 21.52164009 52.40774487 21.52164009 53 27 C47.36188493 28.68010795 42.85834613 29.17737926 37 28.3125 C35.89652222 28.16530518 35.89652222 28.16530518 34.77075195 28.01513672 C27.12838867 26.9573532 19.5621347 25.52230133 12 24 C10.18365583 23.6390104 8.36724606 23.27835081 6.55078125 22.91796875 C1.69893148 21.95311467 -3.15093649 20.97875565 -8 20 C-7.45318976 14.99399078 -5.75859667 11.02818933 -3.4375 6.625 C-3.10814453 5.98433594 -2.77878906 5.34367188 -2.43945312 4.68359375 C-1.63360518 3.11861368 -0.81781507 1.55875979 0 0 Z " fill="#6A6A6A" transform="translate(741,123)"/>
<path d="M0 0 C5.34117614 2.14271827 6.79703922 6.48161442 9.3125 11.375 C9.77978516 12.23867188 10.24707031 13.10234375 10.72851562 13.9921875 C11.16486328 14.8275 11.60121094 15.6628125 12.05078125 16.5234375 C12.44950439 17.28575684 12.84822754 18.04807617 13.2590332 18.83349609 C14.13352754 21.39041957 13.99738896 22.5148419 13 25 C10.88333167 27.38125187 9.22547496 28.80179695 6.01953125 29.3203125 C0.20430922 29.4644065 -5.3603941 28.31865524 -11 27 C-10.56260445 22.62604448 -9.29960622 19.30608114 -7.25390625 15.43359375 C-4.65033749 10.38056155 -2.36365889 5.16853412 0 0 Z M0 4 C-1.1492567 6.74861395 -2.29451341 9.49877984 -3.4375 12.25 C-3.76298828 13.02730469 -4.08847656 13.80460937 -4.42382812 14.60546875 C-4.73642578 15.35957031 -5.04902344 16.11367188 -5.37109375 16.890625 C-5.65911865 17.58188477 -5.94714355 18.27314453 -6.24389648 18.98535156 C-6.99459156 20.98558915 -7.60933147 22.8986295 -8 25 C-6.18884044 26.81115956 -3.38721773 26.38199448 -0.9375 26.5625 C0.16722656 26.64628906 1.27195312 26.73007813 2.41015625 26.81640625 C3.26480469 26.87699219 4.11945312 26.93757813 5 27 C5 24.03 5 21.06 5 18 C5.33 20.31 5.66 22.62 6 25 C9.7763932 25.2981424 9.7763932 25.2981424 12 24 C11.40165275 19.85701333 9.99335715 16.81805623 7.9375 13.1875 C7.38964844 12.21167969 6.84179688 11.23585938 6.27734375 10.23046875 C5.85582031 9.49441406 5.43429687 8.75835937 5 8 C4.67 8 4.34 8 4 8 C3.67 9.65 3.34 11.3 3 13 C2.67 10.03 2.34 7.06 2 4 C1.34 4 0.68 4 0 4 Z " fill="#4E4E4E" transform="translate(773,47)"/>
<path d="M0 0 C1.03544174 1.90881434 2.05290085 3.82739204 3.0625 5.75 C3.63097656 6.81734375 4.19945312 7.8846875 4.78515625 8.984375 C6 12 6 12 5.86328125 14.21875 C4.34542389 17.35061859 1.76874943 19.00650041 -1 21 C-1.99 21 -2.98 21 -4 21 C-5.3878975 14.95273234 -6.65374755 9.2106017 -6 3 C-3.95950963 0.82347693 -2.99435075 0 0 0 Z " fill="#F5F5F5" transform="translate(788,77)"/>
<path d="M0 0 C0.99 0 1.98 0 3 0 C3 0.99 3 1.98 3 3 C1.02 3.99 -0.96 4.98 -3 6 C-3.11051892 11.96802174 -3.21256802 18.13162837 -2 24 C-1.34 24.33 -0.68 24.66 0 25 C-2.31 25.33 -4.62 25.66 -7 26 C-6.01 25.67 -5.02 25.34 -4 25 C-4.2165625 23.86820313 -4.433125 22.73640625 -4.65625 21.5703125 C-4.93759545 20.08855979 -5.21884023 18.60678796 -5.5 17.125 C-5.64308594 16.37863281 -5.78617188 15.63226563 -5.93359375 14.86328125 C-7 9.2265625 -7 9.2265625 -7 7 C-9.77186988 6.89212182 -12.53955537 6.81276673 -15.3125 6.75 C-16.09818359 6.71648437 -16.88386719 6.68296875 -17.69335938 6.6484375 C-19.86618785 6.61145319 -21.86031379 6.6147995 -24 7 C-25.955646 8.88139227 -25.955646 8.88139227 -27 11 C-27.66 11 -28.32 11 -29 11 C-27.125 5.25 -27.125 5.25 -26 3 C-25.39003174 3.05124023 -24.78006348 3.10248047 -24.15161133 3.15527344 C-21.37316589 3.37596516 -18.59342525 3.56326243 -15.8125 3.75 C-14.85279297 3.83121094 -13.89308594 3.91242188 -12.90429688 3.99609375 C-7.12669313 4.43558219 -7.12669313 4.43558219 -2.01171875 2.015625 C-1.34785156 1.35046875 -0.68398438 0.6853125 0 0 Z " fill="#5E5E5E" transform="translate(786,74)"/>
<path d="M0 0 C2.96230965 3.3523056 3.77607176 6.40986554 4.6875 10.75 C4.93886719 11.92046875 5.19023438 13.0909375 5.44921875 14.296875 C5.63097656 15.18890625 5.81273437 16.0809375 6 17 C0.15509535 18.75609243 -4.24442952 19.14954951 -10.25 18.25 C-10.9814624 18.15219238 -11.7129248 18.05438477 -12.46655273 17.95361328 C-18.66524797 17.106334 -24.8439495 16.11496868 -31 15 C-31 14.67 -31 14.34 -31 14 C-22.56612048 12.89342716 -15.30450318 13.25226944 -7 15 C-6.01773438 15.19207031 -5.03546875 15.38414062 -4.0234375 15.58203125 C-1.67918321 16.04097681 0.66131113 16.5136355 3 17 C2.7834375 16.10796875 2.566875 15.2159375 2.34375 14.296875 C2.0653125 13.12640625 1.786875 11.9559375 1.5 10.75 C1.2215625 9.58984375 0.943125 8.4296875 0.65625 7.234375 C0 4 0 4 0 0 Z " fill="#676767" transform="translate(788,133)"/>
<path d="M0 0 C2 1 2 1 3 3 C0.30596767 5.40278559 -1.55575998 6.9032079 -5.21484375 7.1484375 C-8.17756544 6.90192445 -11.06515438 6.48079382 -14 6 C-14.74620605 5.88140625 -15.49241211 5.7628125 -16.26123047 5.640625 C-21.51541291 4.80413824 -26.75925228 3.91669845 -32 3 C-32 2.67 -32 2.34 -32 2 C-30.29278846 1.80254671 -28.58413679 1.61752907 -26.875 1.4375 C-25.92367187 1.33308594 -24.97234375 1.22867188 -23.9921875 1.12109375 C-20.82661417 0.99298308 -18.11403442 1.45046451 -15 2 C-12.75194043 2.11240298 -10.50083055 2.17453439 -8.25 2.1875 C-6.55617188 2.20876953 -6.55617188 2.20876953 -4.828125 2.23046875 C-1.8645556 2.29611396 -1.8645556 2.29611396 0 0 Z " fill="#EDEDED" transform="translate(788,98)"/>
<path d="M0 0 C4.29 0.33 8.58 0.66 13 1 C12.01 2.485 12.01 2.485 11 4 C8.03 3.67 5.06 3.34 2 3 C0.35 7.29 -1.3 11.58 -3 16 C1.455 16.99 1.455 16.99 6 18 C6 18.33 6 18.66 6 19 C1.9472484 19.98248524 -1.83861737 20.08159574 -6 20 C-7.07980476 16.78249481 -6.97733906 15.17877268 -5.56640625 12.109375 C-5.24736328 11.40039062 -4.92832031 10.69140625 -4.59960938 9.9609375 C-4.25736328 9.23132813 -3.91511719 8.50171875 -3.5625 7.75 C-3.22412109 7.00492187 -2.88574219 6.25984375 -2.53710938 5.4921875 C-1.70173696 3.65672135 -0.85222033 1.82770445 0 0 Z " fill="#6F6F6F" transform="translate(750,100)"/>
<path d="M0 0 C0.66 0.33 1.32 0.66 2 1 C2.40729228 3.32156597 2.74438677 5.6568787 3 8 C4.65 7.67 6.3 7.34 8 7 C7.34 4.69 6.68 2.38 6 0 C8.0625 1.75 8.0625 1.75 10 4 C10.09415652 7.01300862 8.99697665 8.00340127 7 10.25 C2.86722348 12.6607863 -0.32154657 12.6554355 -5 12 C-8.08101015 11.1843014 -11.03896237 10.17601494 -14 9 C-10.42619658 7.80873219 -8.49116698 8.2650555 -4.8125 8.9375 C-3.72582031 9.13214844 -2.63914062 9.32679687 -1.51953125 9.52734375 C-0.68808594 9.68332031 0.14335938 9.83929688 1 10 C0.67 6.7 0.34 3.4 0 0 Z " fill="#535353" transform="translate(777,64)"/>
<path d="M0 0 C2.14603692 2.86138256 3.94946712 5.47788309 5.6875 8.5625 C6.12449219 9.32691406 6.56148437 10.09132813 7.01171875 10.87890625 C8 13 8 13 8 16 C6.35 16.66 4.7 17.32 3 18 C1.03177114 16.03177114 1.33751619 12.65191291 1 10 C0.34 10.99 -0.32 11.98 -1 13 C-0.67 8.71 -0.34 4.42 0 0 Z " fill="#BDBDBD" transform="translate(777,55)"/>
<path d="M0 0 C0.66 0 1.32 0 2 0 C3.20250158 2.24307028 4.3869162 4.4928791 5.5625 6.75 C5.90474609 7.38421875 6.24699219 8.0184375 6.59960938 8.671875 C7.89922599 11.19234358 8.99024267 13.31698714 9.03125 16.1875 C7.49384621 18.88960363 5.40039711 20.37944523 2.9375 22.25 C2.01839844 22.95640625 1.09929688 23.6628125 0.15234375 24.390625 C-0.91306641 25.18726563 -0.91306641 25.18726563 -2 26 C-2.66 25.67 -3.32 25.34 -4 25 C-4 24.34 -4 23.68 -4 23 C-2.1015625 21.4921875 -2.1015625 21.4921875 0.375 19.875 C1.18710937 19.33617188 1.99921875 18.79734375 2.8359375 18.2421875 C5 17 5 17 7 17 C6.24203125 15.41058594 6.24203125 15.41058594 5.46875 13.7890625 C4.81229869 12.40113686 4.15605967 11.01311081 3.5 9.625 C3.16613281 8.92632812 2.83226562 8.22765625 2.48828125 7.5078125 C0 2.2265625 0 2.2265625 0 0 Z " fill="#595959" transform="translate(797,95)"/>
<path d="M0 0 C10.42726018 0.52067791 20.66927199 1.471171 31 3 C30.67 3.99 30.34 4.98 30 6 C19.77111263 5.03393842 9.89840321 3.91129506 0 1 C0 0.67 0 0.34 0 0 Z " fill="#5A5A5A" transform="translate(751,119)"/>
<path d="M0 0 C0.99 0.33 1.98 0.66 3 1 C1.5 3 1.5 3 -1 5 C-7.76564624 5.72489067 -14.3528285 4.24080535 -21 3 C-21 2.67 -21 2.34 -21 2 C-15.61548612 1.43638733 -10.29357211 0.93019553 -4.875 1 C-3.59625 1 -2.3175 1 -1 1 C-0.67 0.67 -0.34 0.34 0 0 Z " fill="#F2F2F2" transform="translate(782,74)"/>
<path d="M0 0 C0.66 0.33 1.32 0.66 2 1 C2 1.99 2 2.98 2 4 C-6.25 4 -14.5 4 -23 4 C-23.33 3.01 -23.66 2.02 -24 1 C-16.08 1.33 -8.16 1.66 0 2 C0 1.34 0 0.68 0 0 Z " fill="#849191" transform="translate(916,152)"/>
<path d="M0 0 C2.32590854 3.63423209 2.16265833 6.77088331 2 11 C3.98 10.34 5.96 9.68 8 9 C4.19091752 13.7613531 4.19091752 13.7613531 0.9921875 14.40234375 C-2.81741168 14.46560278 -4.79941271 14.13372486 -8 12 C-5.36 12 -2.72 12 0 12 C-0.185625 10.7625 -0.37125 9.525 -0.5625 8.25 C-0.94711223 5.23720423 -1.0874594 2.89989173 0 0 Z " fill="#545454" transform="translate(786,111)"/>
<path d="M0 0 C0.99 0.33 1.98 0.66 3 1 C1.21427748 2.83947337 -0.57802449 4.67157741 -2.375 6.5 C-2.88289062 7.02464844 -3.39078125 7.54929688 -3.9140625 8.08984375 C-5.23832604 9.43153181 -6.61605865 10.71995815 -8 12 C-8.66 12 -9.32 12 -10 12 C-10.33 12.99 -10.66 13.98 -11 15 C-13.64 14.67 -16.28 14.34 -19 14 C-19 13.67 -19 13.34 -19 13 C-17.906875 12.896875 -16.81375 12.79375 -15.6875 12.6875 C-8.97728597 11.10933476 -4.47054315 4.9143103 0 0 Z " fill="#424242" transform="translate(805,138)"/>
<path d="M0 0 C0.99 0.495 0.99 0.495 2 1 C2.33 1.99 2.66 2.98 3 4 C9.6 4.33 16.2 4.66 23 5 C23.33 5.66 23.66 6.32 24 7 C16.74 7 9.48 7 2 7 C1.34 4.69 0.68 2.38 0 0 Z " fill="#839090" transform="translate(622,149)"/>
<path d="M0 0 C7.52719602 -0.25515919 14.58851545 0.71702277 22 2 C20 4 20 4 17.4609375 4.046875 C11.45326729 3.46892192 5.8026751 2.67384859 0 1 C0 0.67 0 0.34 0 0 Z " fill="#545454" transform="translate(758,102)"/>
<path d="M0 0 C1.21386936 3.64160808 0.6674695 4.33165469 -0.9375 7.6875 C-1.31777344 8.49574219 -1.69804688 9.30398437 -2.08984375 10.13671875 C-2.39019531 10.75160156 -2.69054687 11.36648437 -3 12 C-1.906875 11.95875 -0.81375 11.9175 0.3125 11.875 C4 12 4 12 7 14 C5.7625 14.020625 4.525 14.04125 3.25 14.0625 C2.55390625 14.07410156 1.8578125 14.08570312 1.140625 14.09765625 C-1.03292403 13.99849799 -2.91306537 13.59693851 -5 13 C-3.91343356 8.06866002 -2.8990762 4.21683811 0 0 Z " fill="#3A3A3A" transform="translate(758,84)"/>
<path d="M0 0 C7.89723556 -0.48350422 15.33532703 1.32335279 23 3 C23 3.33 23 3.66 23 4 C14.93489832 4.49155247 7.78273888 3.04937325 0 1 C0 0.67 0 0.34 0 0 Z " fill="#484848" transform="translate(740,143)"/>
<path d="M0 0 C1.32 0 2.64 0 4 0 C5.65 3.3 7.3 6.6 9 10 C8.34 10.66 7.68 11.32 7 12 C5.68 9.36 4.36 6.72 3 4 C2.34 5.32 1.68 6.64 1 8 C0 7 0 7 -0.0625 3.4375 C-0.041875 2.303125 -0.02125 1.16875 0 0 Z " fill="#646464" transform="translate(775,53)"/>
<path d="M0 0 C5.94 0.66 11.88 1.32 18 2 C18 2.66 18 3.32 18 4 C11.28299653 4.31985731 6.24273068 3.4793824 0 1 C0 0.67 0 0.34 0 0 Z " fill="#4B4B4B" transform="translate(763,72)"/>
<path d="M0 0 C8.41192037 -0.10094304 16.64399592 -0.10102642 25 1 C25 1.33 25 1.66 25 2 C6.4906428 4.3270952 6.4906428 4.3270952 0 0 Z " fill="#777777" transform="translate(753,97)"/>
<path d="M0 0 C0.66 0 1.32 0 2 0 C4.04169485 2.90548882 5 4.40142046 5 8 C3.35 8.66 1.7 9.32 0 10 C0 6.7 0 3.4 0 0 Z " fill="#E8E8E8" transform="translate(780,63)"/>
<path d="M0 0 C3.3 0.99 6.6 1.98 10 3 C10 3.33 10 3.66 10 4 C5.9472484 4.98248524 2.16138263 5.08159574 -2 5 C-2.33 3.68 -2.66 2.36 -3 1 C-2.67 1.66 -2.34 2.32 -2 3 C-1.34 3 -0.68 3 0 3 C0 2.01 0 1.02 0 0 Z " fill="#959595" transform="translate(746,115)"/>
<path d="M0 0 C0.99 0.33 1.98 0.66 3 1 C1.35 4.63 -0.3 8.26 -2 12 C-2.66 12 -3.32 12 -4 12 C-3.45660208 7.43545749 -2.20536179 4.0271824 0 0 Z " fill="#6C6C6C" transform="translate(766,62)"/>
<path d="M0 0 C0.33 0.99 0.66 1.98 1 3 C3.31 3.33 5.62 3.66 8 4 C4.1496895 6.56687367 2.41430237 5.83288724 -2 5 C-1.125 1.125 -1.125 1.125 0 0 Z " fill="#616161" transform="translate(735,138)"/>
<path d="M0 0 C2 1 2 1 3 3 C-0.75 6 -0.75 6 -3 6 C-3 5.34 -3 4.68 -3 4 C-5.64 4 -8.28 4 -11 4 C-11 3.67 -11 3.34 -11 3 C-10.37351562 2.95101562 -9.74703125 2.90203125 -9.1015625 2.8515625 C-8.28429687 2.77679688 -7.46703125 2.70203125 -6.625 2.625 C-5.81289063 2.55539063 -5.00078125 2.48578125 -4.1640625 2.4140625 C-1.79665809 2.17107412 -1.79665809 2.17107412 0 0 Z " fill="#CCCCCC" transform="translate(788,98)"/>
<path d="M0 0 C0.99 0.33 1.98 0.66 3 1 C2.05125 1.7425 1.1025 2.485 0.125 3.25 C-2.32532401 5.27845219 -3.87325363 6.9577848 -5 10 C-5.33 9.01 -5.66 8.02 -6 7 C-6.99 6.34 -7.98 5.68 -9 5 C-7.35 5 -5.7 5 -4 5 C-4 4.34 -4 3.68 -4 3 C-2.1875 1.3125 -2.1875 1.3125 0 0 Z " fill="#404040" transform="translate(794,126)"/>
<path d="M0 0 C0.90105469 0.11085938 1.80210937 0.22171875 2.73046875 0.3359375 C3.76107422 0.47902344 3.76107422 0.47902344 4.8125 0.625 C4.4825 1.285 4.1525 1.945 3.8125 2.625 C-0.34888263 2.70659574 -4.1347484 2.60748524 -8.1875 1.625 C-4.73535147 -0.67643236 -3.95270676 -0.51333854 0 0 Z " fill="#646464" transform="translate(769.1875,127.375)"/>
<path d="M0 0 C0.99 0.33 1.98 0.66 3 1 C1.93106782 2.03590338 0.84421512 3.05333942 -0.25 4.0625 C-1.15492188 4.91521484 -1.15492188 4.91521484 -2.078125 5.78515625 C-4 7 -4 7 -6.234375 6.68359375 C-6.81703125 6.45800781 -7.3996875 6.23242188 -8 6 C-6.7391988 4.96680187 -5.46596742 3.94875621 -4.1875 2.9375 C-3.47980469 2.36902344 -2.77210938 1.80054687 -2.04296875 1.21484375 C-1.36878906 0.81394531 -0.69460938 0.41304688 0 0 Z " fill="#545454" transform="translate(803,119)"/>
<path d="M0 0 C0.33 0.66 0.66 1.32 1 2 C2.65 2 4.3 2 6 2 C5.401875 2.2475 4.80375 2.495 4.1875 2.75 C1.71222841 4.16444091 0.66569196 5.72860188 -1 8 C-1.66 8 -2.32 8 -3 8 C-1.125 2.25 -1.125 2.25 0 0 Z " fill="#8E8E8E" transform="translate(760,77)"/>
<path d="M0 0 C2.97 0 5.94 0 9 0 C9 0.99 9 1.98 9 3 C2.25 2.25 2.25 2.25 0 0 Z " fill="#E6E6E6" transform="translate(776,102)"/>
<path d="M0 0 C1.62418745 -0.08090971 3.24951745 -0.13914995 4.875 -0.1875 C5.77992188 -0.22230469 6.68484375 -0.25710937 7.6171875 -0.29296875 C8.79667969 -0.14794922 8.79667969 -0.14794922 10 0 C10.66 0.99 11.32 1.98 12 3 C7.97007218 2.44687265 3.97977076 1.8441938 0 1 C0 0.67 0 0.34 0 0 Z " fill="#D5D5D5" transform="translate(751,117)"/>
<path d="M0 0 C1 3 1 3 -0.4375 6.1875 C-1.2109375 7.5796875 -1.2109375 7.5796875 -2 9 C-2.66 9 -3.32 9 -4 9 C-2.25 2.25 -2.25 2.25 0 0 Z " fill="#5D5D5D" transform="translate(758,84)"/>
<path d="M0 0 C3.3 0.33 6.6 0.66 10 1 C10 1.33 10 1.66 10 2 C4.06 2.495 4.06 2.495 -2 3 C-1.34 2.01 -0.68 1.02 0 0 Z " fill="#979797" transform="translate(777,148)"/>
<path d="M0 0 C0.66 0.33 1.32 0.66 2 1 C1.1875 3.9375 1.1875 3.9375 0 7 C-0.99 7.33 -1.98 7.66 -3 8 C-1.125 2.25 -1.125 2.25 0 0 Z " fill="#838383" transform="translate(737,131)"/>
<path d="M0 0 C0.66 0.66 1.32 1.32 2 2 C0.02 3.32 -1.96 4.64 -4 6 C-4.33 5.01 -4.66 4.02 -5 3 C-3.35 2.01 -1.7 1.02 0 0 Z " fill="#7A7A7A" transform="translate(798,115)"/>
<path d="M0 0 C0.66 0 1.32 0 2 0 C2.99 2.64 3.98 5.28 5 8 C4.01 8.495 4.01 8.495 3 9 C0 3.375 0 3.375 0 0 Z " fill="#6C6C6C" transform="translate(779,56)"/>
<path d="M0 0 C1.89213369 2.38573379 3.02391783 4.07175348 4 7 C2.68 6.67 1.36 6.34 0 6 C-0.38218767 4.34385343 -0.71395102 2.67542976 -1 1 C-0.67 0.67 -0.34 0.34 0 0 Z " fill="#797979" transform="translate(789,76)"/>
<path d="M0 0 C0.99 0 1.98 0 3 0 C3 0.99 3 1.98 3 3 C0.69 3.66 -1.62 4.32 -4 5 C-2.1875 2.5 -2.1875 2.5 0 0 Z " fill="#4D4D4D" transform="translate(786,74)"/>
<path d="M0 0 C-1.32 1.32 -2.64 2.64 -4 4 C-4.33 3.34 -4.66 2.68 -5 2 C-5.99 1.67 -6.98 1.34 -8 1 C-3.375 -1.125 -3.375 -1.125 0 0 Z " fill="#DFDFDF" transform="translate(785,75)"/>
</svg>
